<?xml version="1.0" encoding="UTF-8"?><svg id="a" xmlns="http://www.w3.org/2000/svg" viewBox="0 0 841.89 595.28"><path d="M321.75,390.04c.12,2.86,3.06,5.27,6.09,5.27,3.27,0,5.64-2.12,5.64-5.27,0-2.53-1.1-4.78-5.96-6.66-5.31-2.12-7.52-4.74-7.52-8.66,0-4.29,3.55-7.07,8.58-7.07,2.78,0,5.51.9,7.31,2.21-.65,1.18-1.27,2.45-1.72,3.84l-.65-.16c-.12-2.61-2.57-4.53-5.35-4.53-2.94,0-4.98,1.8-4.98,4.58,0,2.45,1.35,4.49,6.09,6.41,5.43,2.17,7.64,4.78,7.64,8.46,0,4.9-3.8,8.21-9.35,8.21-3.35,0-6.33-.86-8.25-2.41.69-1.27,1.27-2.7,1.84-4.37l.61.16Z" fill="#021e42"/><path d="M371.95,393.27c-2.61,2.21-5.88,3.39-9.15,3.39-9.23,0-14.91-5.56-14.91-14.5s5.68-14.5,14.91-14.5c3.72,0,6.94.73,9.03,1.88-.65,1.23-1.59,3.43-2,4.74l-.65-.16c.2-2.9-2.33-5.11-6.41-5.11-6.41,0-10.54,5.11-10.54,13.15s4.21,13.03,10.7,13.03c3.1,0,5.88-1.02,8.21-2.94l.82,1.02Z" fill="#021e42"/><path d="M407.03,396.17h-.41c-1.14,0-2.29.04-3.72.16l-.08-.65c1.55-.16,1.92-.57,2-1.92.12-4.08.16-7.48.16-11.07-3.02-.08-5.43-.12-8.05-.12s-5.02.04-7.92.12c0,3.76.04,7.27.16,11.56.16.98.61,1.31,1.96,1.43l-.08.65c-1.47-.12-2.66-.16-3.84-.16h-.41c-1.14,0-2.29.04-3.72.16l-.08-.65c1.55-.16,1.92-.57,2-1.92.12-4.29.16-7.8.16-11.6s-.04-7.31-.16-11.6c-.08-1.35-.45-1.76-2-1.92l.08-.65c1.43.12,2.57.16,3.72.16h.53c1.14,0,2.29-.04,3.72-.16l.08.65c-1.35.12-1.8.45-1.96,1.43-.12,3.96-.16,7.23-.16,10.66,2.94.04,5.35.08,7.92.08s5.02-.04,8.05-.08c0-3.27-.04-6.41-.16-10.17-.08-1.35-.45-1.76-2-1.92l.08-.65c1.47.12,2.66.16,3.84.16h.41c1.14,0,2.29-.04,3.72-.16l.08.65c-1.35.12-1.8.45-1.96,1.43-.12,4.49-.16,8.13-.16,12.09s.04,7.6.16,12.09c.16.98.61,1.31,1.96,1.43l-.08.65c-1.47-.12-2.65-.16-3.84-.16Z" fill="#021e42"/><path d="M437.28,367.65c9.31,0,14.95,5.56,14.95,14.5s-5.64,14.5-14.95,14.5-14.95-5.56-14.95-14.5,5.68-14.5,14.95-14.5ZM437.28,369c-6.45,0-10.62,5.11-10.62,13.15s4.17,13.15,10.62,13.15,10.66-5.11,10.66-13.15-4.17-13.15-10.66-13.15Z" fill="#021e42"/><path d="M477.8,367.65c9.31,0,14.95,5.56,14.95,14.5s-5.64,14.5-14.95,14.5-14.95-5.56-14.95-14.5,5.68-14.5,14.95-14.5ZM477.8,369c-6.45,0-10.62,5.11-10.62,13.15s4.17,13.15,10.62,13.15,10.66-5.11,10.66-13.15-4.17-13.15-10.66-13.15Z" fill="#021e42"/><path d="M504.13,395.68c1.51-.2,1.92-.61,2-1.96.12-4.25.16-7.76.16-11.56s-.04-7.35-.16-11.64c-.08-1.35-.49-1.72-2-1.88l.08-.65c1.43.12,2.61.16,3.76.16h.41c1.27,0,2.41-.04,4.37-.16l.08.65c-2.08.16-2.49.57-2.53,1.92-.12,4.25-.16,7.8-.16,11.6,0,4,.04,7.64.16,12.25,3.72,0,6.17-.08,7.97-.29,1.88-.2,3.02-1.35,3.55-3.15l.65.08c-.33,1.76-.61,3.59-.78,5.27-3.31-.12-5.51-.16-8.01-.16-4.33,0-6.9,0-9.48.16l-.08-.65Z" fill="#021e42"/><path d="M127.01,304.15c0-15.61,12.74-26.01,31.97-26.01,12.59,0,21.41,4.67,26.54,11.76l-6.79,4.45c-4.37-5.81-10.71-8.82-19.75-8.82-14.1,0-23.3,7.46-23.3,18.62s9.2,18.62,23.3,18.62c8.9,0,15.38-3.02,19.23-8.29l7.31,4.37c-5.2,6.63-14.02,11.31-26.54,11.31-19.23,0-31.97-10.4-31.97-26.01Z" fill="#021e42"/><path d="M204.21,278.97h33.7c10.78,0,18.02,5.5,18.02,15.61,0,9.2-5.58,13.8-14.63,15.23l15.76,19.45h-10.63l-14.7-18.92h-19.15v18.92h-8.37v-50.29ZM237.61,302.94c6.33,0,9.8-3.02,9.8-8.37s-3.47-8.22-9.8-8.22h-25.03v16.59h25.03Z" fill="#021e42"/><path d="M295.74,278.97h10.18l24.96,50.29h-9.42l-4.98-10.33h-31.29l-4.98,10.33h-9.42l24.96-50.29ZM312.93,311.54l-12.14-25.11-12.06,25.11h24.2Z" fill="#021e42"/><path d="M347.53,278.97h8.82l36.94,39.2v-39.2h8.29v50.29h-8.22l-37.47-39.88v39.88h-8.37v-50.29Z" fill="#021e42"/><path d="M423.52,278.97h8.37v42.9h33.1v7.39h-41.47v-50.29Z" fill="#021e42"/><path d="M483.23,278.97h46.52v7.39h-38.15v13.57h36.87v7.39h-36.87v14.55h38.15v7.39h-46.52v-50.29Z" fill="#021e42"/><path d="M551.01,278.97h8.37v50.29h-8.37v-50.29Z" fill="#021e42"/><path d="M578.6,304.15c0-16.21,13.27-26.01,32.12-26.01,12.36,0,21.19,4.6,26.39,11.46l-6.86,4.52c-4.37-5.65-10.71-8.6-19.53-8.6-13.72,0-23.45,7.01-23.45,18.62s9.73,18.62,23.45,18.62c8.75,0,15.23-2.71,18.7-4.75v-8.14h-23.07v-7.39h31.36v19.07c-6.03,4.9-15.15,8.59-26.99,8.59-18.85,0-32.12-9.88-32.12-26.01Z" fill="#021e42"/><path d="M657.84,278.97h8.37v20.73h36.94v-20.73h8.37v50.29h-8.37v-22.17h-36.94v22.17h-8.37v-50.29Z" fill="#021e42"/><rect x="422" y="119.51" width="45.85" height="38.6" fill="#b0aa7e"/><path d="M373.1,161.11v3.91c0,30.37,16.55,58.32,43.18,72.92l4.2,2.3,4.2-2.3c26.62-14.6,43.17-42.55,43.17-72.92v-3.92h-94.75Z" fill="#b0aa7e"/><rect x="373.1" y="119.51" width="45.9" height="38.6" fill="#b0aa7e"/><polygon points="438.7 181.62 438.7 191.42 423.67 191.42 423.67 176.4 433.48 176.4 433.48 170.11 407.59 170.11 407.59 176.4 417.39 176.4 417.39 191.42 402.36 191.42 402.36 181.62 396.08 181.62 396.08 191.42 396.08 197.71 396.08 207.51 402.36 207.51 402.36 197.71 417.39 197.71 417.39 212.73 407.59 212.73 407.59 219.02 417.39 219.02 423.67 219.02 433.48 219.02 433.48 212.73 423.67 212.73 423.67 197.71 438.7 197.71 438.7 207.51 444.99 207.51 444.99 181.62 438.7 181.62" fill="#021e42"/><polygon points="439.92 138.52 439.11 139.33 437.79 140.65 437.85 140.71 439.5 142.35 440.82 141.04 441.61 140.25 439.92 138.52" fill="#021e42"/><path d="M459.23,151.95c-.31-.31-.71-.46-1.11-.46l-3.04-3.4,1.56-1.56c.16-.16.16-.43,0-.59l-.74-.74c-.16-.16-.43-.16-.59,0l-5.06,5.05c-.16.16-.16.43,0,.59l.74.74c.16.16.43.16.59,0l1.62-1.62,1.18-1.18-.56,1.84,2.1,1.88.06-.05c.3-.24.65-.44,1.02-.51,0,0,0,0,0,0-.61.61-.61,1.61,0,2.22h0c.61.61,1.61.61,2.22,0,.61-.61.61-1.61,0-2.22Z" fill="#021e42"/><polygon points="453.43 145.77 453.37 145.7 449.43 141.85 448.43 142.85 452.44 146.75 453.43 145.77" fill="#021e42"/><polygon points="447.96 143.32 446.93 144.35 450.84 148.36 451.86 147.33 451.8 147.27 447.96 143.32" fill="#021e42"/><path d="M446.33,138.83l-10.69-10.47h0l-.52-.52h0c-.72-.73-1.4-1.24-2.13-1.65-.73-.41-1.53-.73-2.49-1.07l-.78-.27.47,1.09c.34.79.63,1.42.98,2,.35.59.78,1.13,1.39,1.74l.52.52h0l10.82,11.06,1.01-1.01-11.02-11.45,11.48,11,.97-.97Z" fill="#021e42"/><path d="M438.88,150.49v-.17s0-2.2,0-2.2v-.17s-.17,0-.17,0h-1.51s-.17,0-.17,0v.17s0,.52,0,.52h-5.51s0-5.51,0-5.51h5.51s0,1.23,0,1.23v.17s.17,0,.17,0h1.68s0-.17,0-.17v-1.33s0-.07,0-.07l-.05-.05-1.58-1.58-.05-.05h-.07s-6.19,0-6.19,0c-.04-.22-.14-.44-.31-.61-.43-.43-1.14-.43-1.57,0-.43.43-.43,1.14,0,1.57.17.17.39.28.61.31v6.56c-.24.04-.47.15-.65.34-.47.47-.47,1.24,0,1.71.47.47,1.24.47,1.71,0,.18-.18.3-.41.34-.65h7.66s.17,0,.17,0Z" fill="#021e42"/><path d="M443.52,153.56c-.17-.17-.39-.27-.61-.31v-6.19s0-.07,0-.07l-.05-.05-1.58-1.59-.05-.05h-.07s-7.29,0-7.29,0h-.17s0,.17,0,.17v2.37s.17,0,.17,0h1.68s0-.17,0-.17v-.51s5.51,0,5.51,0v5.51s-5.51,0-5.51,0v-1.23s0-.17,0-.17h-.17s-1.51,0-1.51,0h-.17s0,.17,0,.17v1.71c-.25.04-.49.15-.68.34-.47.47-.47,1.24,0,1.71.47.47,1.24.47,1.71,0,.19-.19.3-.43.34-.68h6.58c.04.22.14.44.31.61.43.43,1.14.43,1.57,0,.43-.43.43-1.14,0-1.57Z" fill="#021e42"/><path d="M462.05,138.15l-3.3-3.3c-.09-.09-.22-.09-.32-.02-.49.4-1.19.4-1.68,0-.05-.04-.11-.06-.16-.05-.06,0-.11.03-.15.07h0s-2.87,2.87-2.87,2.87h0s-.07.1-.07.16c0,.06.01.12.05.16.4.49.4,1.19,0,1.68-.04.05-.06.11-.05.16,0,.06.03.11.07.15h0s3.3,3.3,3.3,3.3c.09.09.24.09.34,0l1.57-1.57h.01c.09-.11.09-.26,0-.35l-.91-.91c-.09-.09-.24-.09-.34,0h-.01s-.44.46-.44.46c-.03.03-.07.03-.09,0l-1.38-1.38s-.05-.09-.04-.13v-.03c.07-.36.07-.73,0-1.09v-.02s0-.1.04-.13l1.28-1.28s.09-.05.13-.04h.02c.36.07.73.07,1.09,0h.03s.1,0,.13.04l1.38,1.38s.03.07,0,.09l-.44.44h-.01c-.09.11-.09.26,0,.35l.91.91c.09.09.24.09.34,0h.01s1.57-1.58,1.57-1.58c.09-.09.09-.24,0-.34Z" fill="#021e42"/><path d="M449.42,127.6c0-.06-.01-.12-.05-.16-.4-.49-.4-1.19,0-1.68.08-.1.07-.23-.02-.32l-3.3-3.3c-.09-.09-.24-.09-.34,0l-1.57,1.57h-.01c-.09.11-.09.26,0,.35l.91.91c.09.09.24.09.34,0h.01s.44-.46.44-.46c.03-.03.07-.03.09,0l1.38,1.38s.05.09.04.13v.03c-.07.36-.07.73,0,1.09v.02s0,.1-.04.13l-1.28,1.28s-.09.05-.13.04h-.02c-.36-.07-.73-.07-1.09,0h-.03s-.1,0-.13-.04l-1.38-1.38s-.03-.07,0-.09l.44-.44h.01c.09-.11.09-.26,0-.35l-.91-.91c-.09-.09-.24-.09-.34,0h-.01s-1.57,1.58-1.57,1.58c-.09.09-.09.24,0,.34l3.3,3.3h0s.1.07.15.07c.06,0,.12-.01.16-.05.49-.4,1.19-.4,1.68,0,.05.04.11.06.16.05.06,0,.11-.03.15-.07h0s2.87-2.87,2.87-2.87h0s.07-.1.07-.16Z" fill="#021e42"/><path d="M445.35,136.51l8.99-8.98h0s0,0,0,0c.02-.02.05-.05.07-.11.03-.09.04-.23-.03-.41-.07-.18-.23-.41-.52-.7,0,0,0,0,0,0s0,0,0,0c-.29-.29-.52-.44-.7-.52-.18-.07-.32-.07-.41-.03-.06.02-.1.05-.11.07h0s0,0,0,0l-9.02,9.03,1.75,1.67Z" fill="#021e42"/><path d="M443.54,146.39l14.83-14.82h0s0,0,0,0c.02-.02.05-.05.07-.11.03-.09.04-.23-.03-.41-.07-.18-.23-.41-.52-.7,0,0,0,0,0,0s0,0,0,0c-.29-.29-.52-.44-.7-.52-.18-.07-.32-.07-.41-.03-.06.02-.1.05-.11.07h0s0,0,0,0l-14.82,14.83,1.71,1.71Z" fill="#021e42"/><path d="M409.77,131.59v-.09c-.44.08-.89.12-1.35.12-.51,0-1.01-.05-1.5-.15-.03.2-.15.64-.72.95,0,0,.02,0,.05,0,.58-.06,1.17-.32,1.51-.66-.02.31-.12.92-.57,1.35,0,0,1.2-.11,1.54-1.1.43.96,1.73,1.08,1.73,1.08-.67-.54-.71-1.49-.71-1.49Z" fill="#021e42"/><path d="M402.45,125.67s.74-.38,1.37-.17c-.38-.73-.17-1.21-.17-1.21-.01.11.02.25.07.37.05.14.13.26.21.38.06.08.12.14.18.21.13.13.42.47.42.95,0,.06-.02.12-.03.18-.03.2-.07.38-.09.49-.07.25-.13.5-.13.76,0,.02,0,.05,0,.07,0,1.4.93,2.63,2.27,3.04.39.12.58.22,1.09.27-2.61-1.51-1.3-3.95-1.3-3.95,0,0-.38,3.47,3.54,3.52.78,0,1.55-.18,2.24-.53,2,.01,3.69,1.57,3.69,1.57-.49-1.47-1.39-1.93-1.39-1.93,1.58-.46,1.79-1.24,1.79-1.24,0,0-.6.47-2.48.3.57-.61,1.03-1.32,1.36-2.1-1.42,1.66-2.8,1.84-3.27,1.85-.06,0-.11,0-.17,0h0c-1.26-.05-2.46-.59-3.29-1.13-1.89-1.22-1-2.35-1.8-3.61-.87-1.37-2.22-.64-2.23-.64-1.5.71-1.87,2.56-1.87,2.56ZM404.38,124.37c-.2-.26-.02-.63.3-.63.12,0,.24.05.31.15.2.26.02.63-.3.63-.12,0-.24-.05-.31-.15Z" fill="#021e42"/><path d="M396.64,131.59v-.09c-.44.08-.89.12-1.35.12-.51,0-1.01-.05-1.5-.15-.03.2-.15.64-.72.95,0,0,.02,0,.05,0,.58-.06,1.17-.32,1.51-.66-.02.31-.12.92-.57,1.35,0,0,1.2-.11,1.54-1.1.43.96,1.73,1.08,1.73,1.08-.67-.54-.71-1.49-.71-1.49Z" fill="#021e42"/><path d="M389.31,125.67s.74-.38,1.37-.17c-.38-.73-.17-1.21-.17-1.21-.01.11.02.25.07.37.05.14.13.26.21.38.06.08.12.14.18.21.13.13.42.47.42.95,0,.06-.02.12-.03.18-.03.2-.07.38-.09.49-.07.25-.13.5-.13.76,0,.02,0,.05,0,.07,0,1.4.93,2.63,2.27,3.04.39.12.58.22,1.09.27-2.61-1.51-1.3-3.95-1.3-3.95,0,0-.38,3.47,3.54,3.52.78,0,1.55-.18,2.24-.53,2,.01,3.69,1.57,3.69,1.57-.49-1.47-1.39-1.93-1.39-1.93,1.58-.46,1.79-1.24,1.79-1.24,0,0-.6.47-2.48.3.57-.61,1.03-1.32,1.36-2.1-1.42,1.66-2.8,1.84-3.27,1.85-.06,0-.11,0-.17,0h0c-1.26-.05-2.46-.59-3.29-1.13-1.89-1.22-1-2.35-1.8-3.61-.87-1.37-2.22-.64-2.23-.64-1.5.71-1.87,2.56-1.87,2.56ZM391.25,124.37c-.2-.26-.02-.63.3-.63.12,0,.24.05.31.15.2.26.02.63-.3.63-.12,0-.24-.05-.31-.15Z" fill="#021e42"/><path d="M396.64,153.88v-.09c-.44.08-.89.12-1.35.12-.51,0-1.01-.05-1.5-.15-.03.2-.15.64-.72.95,0,0,.02,0,.05,0,.58-.06,1.17-.32,1.51-.66-.02.31-.12.92-.57,1.35,0,0,1.2-.11,1.54-1.1.43.96,1.73,1.08,1.73,1.08-.67-.54-.71-1.49-.71-1.49Z" fill="#021e42"/><path d="M389.31,147.96s.74-.38,1.37-.17c-.38-.73-.17-1.21-.17-1.21-.01.11.02.25.07.37.05.14.13.26.21.38.06.08.12.14.18.21.13.13.42.47.42.95,0,.06-.02.12-.03.18-.03.2-.07.38-.09.49-.07.25-.13.5-.13.76,0,.02,0,.05,0,.07,0,1.4.93,2.63,2.27,3.04.39.12.58.22,1.09.27-2.61-1.51-1.3-3.95-1.3-3.95,0,0-.38,3.47,3.54,3.52.78,0,1.55-.18,2.24-.53,2,.01,3.69,1.57,3.69,1.57-.49-1.47-1.39-1.93-1.39-1.93,1.58-.46,1.79-1.24,1.79-1.24,0,0-.6.47-2.48.3.57-.61,1.03-1.32,1.36-2.1-1.42,1.66-2.8,1.84-3.27,1.85-.06,0-.11,0-.17,0h0c-1.26-.05-2.46-.59-3.29-1.13-1.89-1.22-1-2.35-1.8-3.61-.87-1.37-2.22-.64-2.23-.64-1.5.71-1.87,2.56-1.87,2.56ZM391.25,146.67c-.2-.26-.02-.63.3-.63.12,0,.24.05.31.15.2.26.02.63-.3.63-.12,0-.24-.05-.31-.15Z" fill="#021e42"/><path d="M403.21,142.73v-.09c-.44.08-.89.12-1.35.12-.51,0-1.01-.05-1.5-.15-.03.2-.15.64-.72.95,0,0,.02,0,.05,0,.58-.06,1.17-.32,1.51-.66-.02.31-.12.92-.57,1.35,0,0,1.2-.11,1.54-1.1.43.96,1.73,1.08,1.73,1.08-.67-.54-.71-1.49-.71-1.49Z" fill="#021e42"/><path d="M395.88,136.81s.74-.38,1.37-.17c-.38-.73-.17-1.21-.17-1.21-.01.11.02.25.07.37.05.14.13.26.21.38.06.08.12.14.18.21.13.13.42.47.42.95,0,.06-.02.12-.03.18-.03.2-.07.38-.09.49-.07.25-.13.5-.13.76,0,.02,0,.05,0,.07,0,1.4.93,2.63,2.27,3.04.39.12.58.22,1.09.27-2.61-1.51-1.3-3.95-1.3-3.95,0,0-.38,3.47,3.54,3.52.78,0,1.55-.18,2.24-.53,2,.01,3.69,1.57,3.69,1.57-.49-1.47-1.39-1.93-1.39-1.93,1.58-.46,1.79-1.24,1.79-1.24,0,0-.6.47-2.48.3.57-.61,1.03-1.32,1.36-2.1-1.42,1.66-2.8,1.84-3.27,1.85-.06,0-.11,0-.17,0h0c-1.26-.05-2.46-.59-3.29-1.13-1.89-1.22-1-2.35-1.8-3.61-.87-1.37-2.22-.64-2.23-.64-1.5.71-1.87,2.56-1.87,2.56ZM397.82,135.52c-.2-.26-.02-.63.3-.63.12,0,.24.05.31.15.2.26.02.63-.3.63-.12,0-.24-.05-.31-.15Z" fill="#021e42"/><path d="M390.07,142.73v-.09c-.44.08-.89.12-1.35.12-.51,0-1.01-.05-1.5-.15-.03.2-.15.64-.72.95,0,0,.02,0,.05,0,.58-.06,1.17-.32,1.51-.66-.02.31-.12.92-.57,1.35,0,0,1.2-.11,1.54-1.1.43.96,1.73,1.08,1.73,1.08-.67-.54-.71-1.49-.71-1.49Z" fill="#021e42"/><path d="M382.75,136.81s.74-.38,1.37-.17c-.38-.73-.17-1.21-.17-1.21-.01.11.02.25.07.37.05.14.13.26.21.38.06.08.12.14.18.21.13.13.42.47.42.95,0,.06-.02.12-.03.18-.03.2-.07.38-.09.49-.07.25-.13.5-.13.76,0,.02,0,.05,0,.07,0,1.4.93,2.63,2.27,3.04.39.12.58.22,1.09.27-2.61-1.51-1.3-3.95-1.3-3.95,0,0-.38,3.47,3.54,3.52.78,0,1.55-.18,2.24-.53,2,.01,3.69,1.57,3.69,1.57-.49-1.47-1.39-1.93-1.39-1.93,1.58-.46,1.79-1.24,1.79-1.24,0,0-.6.47-2.48.3.57-.61,1.03-1.32,1.36-2.1-1.42,1.66-2.8,1.84-3.27,1.85-.06,0-.11,0-.17,0h0c-1.26-.05-2.46-.59-3.29-1.13-1.89-1.22-1-2.35-1.8-3.61-.87-1.37-2.22-.64-2.23-.64-1.5.71-1.87,2.56-1.87,2.56ZM384.68,135.52c-.2-.26-.02-.63.3-.63.12,0,.24.05.31.15.2.26.02.63-.3.63-.12,0-.24-.05-.31-.15Z" fill="#021e42"/><path d="M383.5,131.59v-.09c-.44.08-.89.12-1.35.12-.51,0-1.01-.05-1.5-.15-.03.2-.15.64-.72.95,0,0,.02,0,.05,0,.58-.06,1.17-.32,1.51-.66-.02.31-.12.92-.57,1.35,0,0,1.2-.11,1.54-1.1.43.96,1.73,1.08,1.73,1.08-.67-.54-.71-1.49-.71-1.49Z" fill="#021e42"/><path d="M376.18,125.67s.74-.38,1.37-.17c-.38-.73-.17-1.21-.17-1.21-.01.11.02.25.07.37.05.14.13.26.21.38.06.08.12.14.18.21.13.13.42.47.42.95,0,.06-.02.12-.03.18-.03.2-.07.38-.09.49-.07.25-.13.5-.13.76,0,.02,0,.05,0,.07,0,1.4.93,2.63,2.27,3.04.39.12.58.22,1.09.27-2.61-1.51-1.3-3.95-1.3-3.95,0,0-.38,3.47,3.54,3.52.78,0,1.55-.18,2.24-.53,2,.01,3.69,1.57,3.69,1.57-.49-1.47-1.39-1.93-1.39-1.93,1.58-.46,1.79-1.24,1.79-1.24,0,0-.6.47-2.48.3.57-.61,1.03-1.32,1.36-2.1-1.42,1.66-2.8,1.84-3.27,1.85-.06,0-.11,0-.17,0h0c-1.26-.05-2.46-.59-3.29-1.13-1.89-1.22-1-2.35-1.8-3.61-.87-1.37-2.22-.64-2.23-.64-1.5.71-1.87,2.56-1.87,2.56ZM378.11,124.37c-.2-.26-.02-.63.3-.63.12,0,.24.05.31.15.2.26.02.63-.3.63-.12,0-.24-.05-.31-.15Z" fill="#021e42"/><path d="M268.74,433.97h15.05v2.75h-11.94v3.71h11.54v2.75h-11.54v4h11.94v2.75h-15.05v-15.96Z" fill="#b0aa7e"/><path d="M297.34,441.7l-7.2-7.73h4.26l5.07,5.72,5.05-5.72h4.31l-7.2,7.71,7.63,8.26h-4.24l-5.55-6.2-5.53,6.2h-4.26l7.66-8.23Z" fill="#b0aa7e"/><path d="M326.67,441.97c0-4.98,4.07-8.26,10.27-8.26,4.24,0,7.08,1.63,8.64,3.9l-2.56,1.65c-1.34-1.84-3.21-2.8-6.08-2.8-4.26,0-7.04,2.2-7.04,5.5s2.78,5.5,7.04,5.5c2.82,0,4.74-.96,5.89-2.61l2.75,1.6c-1.58,2.13-4.43,3.76-8.64,3.76-6.2,0-10.27-3.28-10.27-8.26Z" fill="#b0aa7e"/><path d="M352.37,442.56v-8.59h3.11v8.59c0,3.04,2.13,4.86,5.58,4.86s5.58-1.82,5.58-4.86v-8.59h3.11v8.59c0,4.72-3.33,7.66-8.69,7.66s-8.69-2.94-8.69-7.66Z" fill="#b0aa7e"/><path d="M378.01,433.97h3.11v13.21h10.29v2.75h-13.4v-15.96Z" fill="#b0aa7e"/><path d="M400.82,436.75h-6.44v-2.78h15.99v2.78h-6.44v13.19h-3.11v-13.19Z" fill="#b0aa7e"/><path d="M417.56,442.56v-8.59h3.11v8.59c0,3.04,2.13,4.86,5.58,4.86s5.58-1.82,5.58-4.86v-8.59h3.11v8.59c0,4.72-3.33,7.66-8.69,7.66s-8.69-2.94-8.69-7.66Z" fill="#b0aa7e"/><path d="M454.92,433.97h11.13c3.54,0,5.79,1.84,5.79,5.07,0,2.82-1.63,4.28-4.36,4.83l4.74,6.06h-3.97l-4.31-5.79h-5.91v5.79h-3.11v-15.96ZM465.91,441.39c1.77,0,2.75-.84,2.75-2.35s-.98-2.32-2.75-2.32h-7.87v4.67h7.87Z" fill="#b0aa7e"/><path d="M478.53,441.97c0-4.98,3.97-8.26,10.03-8.26s10.03,3.28,10.03,8.26-3.97,8.26-10.03,8.26-10.03-3.28-10.03-8.26ZM488.56,447.47c4.12,0,6.8-2.18,6.8-5.5s-2.68-5.5-6.8-5.5-6.8,2.2-6.8,5.5,2.68,5.5,6.8,5.5Z" fill="#b0aa7e"/><path d="M506.03,433.97h11.56c3.16,0,5,1.84,5,4.07,0,1.99-1.51,3.4-3.06,3.66,1.84.26,3.42,1.94,3.42,3.9,0,2.47-1.92,4.33-5.1,4.33h-11.82v-15.96ZM517.07,440.48c1.48,0,2.35-.72,2.35-1.89s-.86-1.87-2.35-1.87h-7.92v3.76h7.92ZM517.19,447.18c1.63,0,2.58-.77,2.58-2.01s-.96-2.03-2.58-2.03h-8.04v4.04h8.04Z" fill="#b0aa7e"/><path d="M530.57,442.56v-8.59h3.11v8.59c0,3.04,2.13,4.86,5.58,4.86s5.58-1.82,5.58-4.86v-8.59h3.11v8.59c0,4.72-3.33,7.66-8.69,7.66s-8.69-2.94-8.69-7.66Z" fill="#b0aa7e"/><path d="M556.21,433.97h11.13c3.54,0,5.79,1.84,5.79,5.07,0,2.82-1.63,4.28-4.36,4.83l4.74,6.06h-3.97l-4.31-5.79h-5.91v5.79h-3.11v-15.96ZM567.19,441.39c1.77,0,2.75-.84,2.75-2.35s-.98-2.32-2.75-2.32h-7.87v4.67h7.87Z" fill="#b0aa7e"/></svg>